<svg width="500" height="500" viewBox="0 0 500 500" fill="none" xmlns="http://www.w3.org/2000/svg">
<rect x="10" y="10" width="480" height="480" rx="240" fill="#0BE339" stroke="white" stroke-width="20"/>
<path d="M153.768 156.8C154.472 156.8 155.08 157.056 155.592 157.568C156.104 158.08 156.36 158.688 156.36 159.392V221.408C156.36 222.112 156.104 222.72 155.592 223.232C155.08 223.744 154.472 224 153.768 224H133.992C133.288 224 132.68 223.744 132.168 223.232C131.656 222.72 131.4 222.112 131.4 221.408V200.96H112.2V221.408C112.2 222.112 111.944 222.72 111.432 223.232C110.92 223.744 110.312 224 109.608 224H89.832C89.128 224 88.52 223.776 88.008 223.328C87.496 222.816 87.24 222.176 87.24 221.408V159.392C87.24 158.688 87.496 158.08 88.008 157.568C88.52 157.056 89.128 156.8 89.832 156.8H109.608C110.312 156.8 110.92 157.056 111.432 157.568C111.944 158.08 112.2 158.688 112.2 159.392V179.072H131.4V159.392C131.4 158.688 131.656 158.08 132.168 157.568C132.68 157.056 133.288 156.8 133.992 156.8H153.768ZM238.115 204.32C238.818 204.32 239.426 204.576 239.938 205.088C240.451 205.6 240.707 206.208 240.707 206.912V221.408C240.707 222.112 240.451 222.72 239.938 223.232C239.426 223.744 238.818 224 238.115 224H176.482C175.778 224 175.17 223.744 174.658 223.232C174.146 222.72 173.89 222.112 173.89 221.408V207.584C173.89 206.752 174.05 206.048 174.37 205.472C174.69 204.896 175.01 204.48 175.33 204.224L205.666 176.48H178.498C177.794 176.48 177.186 176.224 176.674 175.712C176.162 175.2 175.906 174.592 175.906 173.888V159.392C175.906 158.688 176.162 158.08 176.674 157.568C177.186 157.056 177.794 156.8 178.498 156.8H236.098C236.802 156.8 237.411 157.056 237.923 157.568C238.434 158.08 238.69 158.688 238.69 159.392V173.12C238.69 174.464 238.274 175.52 237.442 176.288L207.49 204.32H238.115ZM127.08 301.184C134.12 301.952 139.752 303.2 143.976 304.928C148.264 306.656 151.368 308.928 153.288 311.744C155.208 314.56 156.168 318.08 156.168 322.304C156.168 326.912 154.664 330.944 151.656 334.4C148.712 337.792 144.616 340.416 139.368 342.272C134.12 344.064 128.136 344.96 121.416 344.96C113.928 344.96 107.592 344.032 102.408 342.176C97.224 340.32 93.352 337.856 90.792 334.784C88.232 331.648 86.952 328.224 86.952 324.512C86.952 323.872 87.144 323.36 87.528 322.976C87.976 322.592 88.52 322.4 89.16 322.4H108.84C110.184 322.4 111.272 322.816 112.104 323.648C113.192 324.672 114.408 325.376 115.752 325.76C117.096 326.08 118.984 326.24 121.416 326.24C127.496 326.24 130.536 325.312 130.536 323.456C130.536 322.688 130.12 322.048 129.288 321.536C128.52 320.96 127.112 320.48 125.064 320.096C123.08 319.648 120.136 319.2 116.232 318.752C107.464 317.728 100.744 315.552 96.072 312.224C91.4 308.832 89.064 304.064 89.064 297.92C89.064 293.568 90.376 289.728 93 286.4C95.624 283.072 99.336 280.48 104.136 278.624C109 276.768 114.632 275.84 121.032 275.84C127.688 275.84 133.512 276.896 138.504 279.008C143.496 281.056 147.304 283.616 149.928 286.688C152.552 289.76 153.864 292.768 153.864 295.712C153.864 296.352 153.64 296.864 153.192 297.248C152.808 297.632 152.264 297.824 151.56 297.824H130.92C129.832 297.824 128.84 297.44 127.944 296.672C127.24 296.032 126.408 295.52 125.448 295.136C124.488 294.752 123.016 294.56 121.032 294.56C116.744 294.56 114.6 295.456 114.6 297.248C114.6 298.208 115.432 298.976 117.096 299.552C118.76 300.064 122.088 300.608 127.08 301.184ZM220.259 324.32H237.635C238.338 324.32 238.946 324.576 239.458 325.088C239.971 325.6 240.227 326.208 240.227 326.912V341.408C240.227 342.112 239.971 342.72 239.458 343.232C238.946 343.744 238.338 344 237.635 344H176.77C176.066 344 175.458 343.744 174.946 343.232C174.434 342.72 174.178 342.112 174.178 341.408V326.912C174.178 326.208 174.434 325.6 174.946 325.088C175.458 324.576 176.066 324.32 176.77 324.32H194.338V296.48H176.77C176.066 296.48 175.458 296.224 174.946 295.712C174.434 295.2 174.178 294.592 174.178 293.888V279.392C174.178 278.688 174.434 278.08 174.946 277.568C175.458 277.056 176.066 276.8 176.77 276.8H237.635C238.338 276.8 238.946 277.056 239.458 277.568C239.971 278.08 240.227 278.688 240.227 279.392V293.888C240.227 294.592 239.971 295.2 239.458 295.712C238.946 296.224 238.338 296.48 237.635 296.48H220.259V324.32ZM327.165 303.488C327.869 303.488 328.477 303.744 328.989 304.256C329.501 304.768 329.757 305.376 329.757 306.08V316.256C329.757 325.984 326.429 333.216 319.773 337.952C313.181 342.624 304.445 344.96 293.565 344.96C282.685 344.96 273.917 342.624 267.261 337.952C260.669 333.216 257.373 325.92 257.373 316.064V304.736C257.373 298.208 258.973 292.8 262.173 288.512C265.373 284.16 269.693 280.96 275.133 278.912C280.573 276.864 286.717 275.84 293.565 275.84C301.757 275.84 308.509 277.184 313.821 279.872C319.133 282.56 322.973 285.6 325.341 288.992C327.773 292.384 328.989 295.136 328.989 297.248C328.989 297.824 328.765 298.336 328.317 298.784C327.933 299.168 327.453 299.36 326.877 299.36H305.181C303.901 299.36 302.973 299.008 302.397 298.304C300.413 295.808 297.469 294.56 293.565 294.56C290.621 294.56 288.157 295.232 286.173 296.576C284.253 297.92 283.293 299.648 283.293 301.76V318.08C283.293 320.64 284.253 322.656 286.173 324.128C288.093 325.536 290.557 326.24 293.565 326.24C297.533 326.24 300.445 325.568 302.301 324.224C304.221 322.816 305.213 321.184 305.277 319.328H299.325C298.621 319.328 298.013 319.072 297.501 318.56C296.989 318.048 296.733 317.44 296.733 316.736V306.08C296.733 305.376 296.989 304.768 297.501 304.256C298.013 303.744 298.621 303.488 299.325 303.488H327.165ZM408.055 276.8C408.759 276.8 409.367 277.056 409.879 277.568C410.391 278.08 410.647 278.688 410.647 279.392V341.408C410.647 342.112 410.391 342.72 409.879 343.232C409.367 343.744 408.759 344 408.055 344H392.599C391.063 344 389.783 343.328 388.759 341.984L367.831 315.296V341.408C367.831 342.112 367.575 342.72 367.063 343.232C366.551 343.744 365.943 344 365.239 344H347.383C346.679 344 346.071 343.744 345.559 343.232C345.047 342.72 344.791 342.112 344.791 341.408V279.392C344.791 278.688 345.047 278.08 345.559 277.568C346.071 277.056 346.679 276.8 347.383 276.8H362.935C364.471 276.8 365.719 277.44 366.679 278.72L387.607 307.616V279.392C387.607 278.688 387.863 278.08 388.375 277.568C388.887 277.056 389.495 276.8 390.199 276.8H408.055Z" fill="white"/>
<path d="M257.4 190C257.4 184.477 261.877 180 267.4 180H400.7C406.223 180 410.7 184.477 410.7 190C410.7 195.523 406.223 200 400.7 200H267.4C261.877 200 257.4 195.523 257.4 190Z" fill="white"/>
</svg>
